# xmcd
#
# Track frame offsets:
# 151
# 13117
# 26640
# 36361
# 49872
# 64594
# 75660
# 87797
# 102316
# 115014
# 127215
# 140496
# 153021
# 166980
# 180956
# 190832
#
# Disc length: 2719 seconds
#
#
# Revision: 0
# Processed by: cddbd v1.5.2PL0 Copyright (c) Steve Scherf et al.
# Submitted via: FreeRIP 2.945 
#
DISCID=c90a9d10
DTITLE=Howlin' Wolf - Come Back Home
DYEAR=2002
DGENRE=Blues
TTITLE0=How many more years
TTITLE1=California Boogie
TTITLE2=Look a here baby
TTITLE3=My baby walked off
TTITLE4=My Troubles and me
TTITLE5=Mr. Highway Man
TTITLE6=Chocolate Drop
TTITLE7=Color and kind
TTITLE8=Bluebird
TTITLE9=Dorothy Mae
TTITLE10=Well that's alright
TTITLE11=Oh Red
TTITLE12=Drinkin C.V.Wine (C.V.Wine Blues)
TTITLE13=My Last Affair
TTITLE14=Come Back Home
TTITLE15=California Blues
EXTD=
EXTT0=
EXTT1=
EXTT2=
EXTT3=
EXTT4=
EXTT5=
EXTT6=
EXTT7=
EXTT8=
EXTT9=
EXTT10=
EXTT11=
EXTT12=
EXTT13=
EXTT14=
EXTT15=
PLAYORDER=
